<svg width="24" height="24" viewBox="0 0 24 24" version="1.1" xmlns="http://www.w3.org/2000/svg" xmlns:xlink="http://www.w3.org/1999/xlink">
<g id="Canvas" fill="none">
<g id="TW">
<g id="Vector">
<path d="M 4 8C 6.20914 8 8 6.20914 8 4C 8 1.79086 6.20914 0 4 0C 1.79086 0 0 1.79086 0 4C 0 6.20914 1.79086 8 4 8Z" transform="translate(11.7852 4)" fill="#3F51B5"/>
</g>
<g id="Vector_2">
<path d="M 10.3681 0.662139C 10.1597 0.662139 9.78479 1.09446 9.78479 1.32883C 9.78479 3.58317 8.88926 5.74518 7.2952 7.33924C 5.70114 8.9333 3.53913 9.82883 1.28479 9.82883C 0.854432 9.82556 0.42494 9.78969 -3.90625e-08 9.72153C 1.71814 10.876 3.71783 11.5417 5.78512 11.6473C 7.85241 11.7529 9.90952 11.2945 11.7364 10.3211C 13.5632 9.34772 15.0911 7.89599 16.1565 6.12123C 17.2219 4.34646 17.7847 2.31545 17.7848 0.245459C 17.7848 -0.490171 13.1024 0.662139 10.3681 0.662139Z" transform="translate(2 8.1709)" fill="#3F51B5"/>
</g>
<g id="Vector_3">
<path d="M 9.23331 4.028C 7.57841 4.02885 5.94322 3.66892 4.44164 2.97326C 2.94006 2.27761 1.60819 1.26296 0.53879 -2.27509e-07C 0.189817 0.59653 0.00399608 1.2744 -9.53674e-08 1.9655C 2.55672e-06 3.02084 0.419234 4.03296 1.16547 4.7792C 1.91171 5.52544 2.92382 5.94468 3.97916 5.94469C 6.10398 5.94469 9.8776 5.96733 10.1261 3.9829C 9.83054 4.00585 9.5347 4.028 9.23331 4.028Z" transform="translate(3.13477 4.80566)" fill="#3F51B5"/>
</g>
<g id="Vector_4">
<path d="M 1.89587 0.861733C 1.23411 0.857393 0.584138 0.686199 0.00610006 0.363993C 0.00579006 0.384563 1.15891e-07 0.403603 1.15891e-07 0.424233C 2.76804e-06 1.47958 0.419238 2.4917 1.16548 3.23794C 1.91172 3.98418 2.92384 4.40342 3.97919 4.40342C 6.17682 4.40342 9.25419 2.80942 9.25419 0.611773C 9.25419 -0.897897 4.07287 0.861733 1.89587 0.861733Z" transform="translate(3.13477 9.17969)" fill="#3F51B5"/>
</g>
<g id="Vector_5">
<path d="M 3.02909 1.98756C 2.58571 2.27484 2.0887 2.46928 1.56808 2.55915C 1.04746 2.64901 0.514034 2.63243 -1.98364e-09 2.51042C 0.239878 3.33276 0.739538 4.05535 1.42425 4.57009C 2.10895 5.08484 2.94191 5.36409 3.79852 5.36607C 4.99301 5.23873 6.10788 4.70625 6.95768 3.85721C 7.80747 3.00817 8.34094 1.89377 8.46934 0.699396C 8.46934 -1.19415 4.13098 1.27995 3.02909 1.98756Z" transform="translate(4.48242 11.0088)" fill="#3F51B5"/>
</g>
<g id="Vector_6">
<path d="M 1.10154 1.05182C -0.220604 1.05182 -0.534085 2.71222 1.17654 2.71222C 2.00752 2.71037 2.81693 2.44757 3.49051 1.96092C 4.16408 1.47427 4.66779 0.788354 4.93053 1.12457e-07C 3.7719 0.688292 2.44919 1.05164 1.10154 1.05182Z" transform="translate(16.2939 4.32715)" fill="#3F51B5"/>
</g>
<g id="Vector_7">
<path d="M 5.65406 0.780112C 4.64514 0.781421 3.64628 0.579754 2.7169 0.187112C 0.00858855 -0.958398 -1.63836 3.53011 2.52906 3.53011C 3.7951 3.53009 5.04072 3.21101 6.15086 2.60236C 7.261 1.9937 8.19985 1.1151 8.88069 0.0477116C 7.87305 0.528917 6.7707 0.779134 5.65406 0.780112Z" transform="translate(12.96 5.75488)" fill="#3F51B5"/>
</g>
</g>
</g>
</svg>

