<svg width="24" height="24" viewBox="0 0 24 24" version="1.1" xmlns="http://www.w3.org/2000/svg" xmlns:xlink="http://www.w3.org/1999/xlink">
<g id="Canvas" fill="none">
<g id="VK">
<g id="Vector">
<path d="M 19.4816 0.505456L 16.1911 0.505456C 16.0568 0.505455 15.925 0.541867 15.8098 0.610817C 15.6945 0.679767 15.6001 0.778675 15.5366 0.897016C 15.5366 0.897016 14.2243 3.31395 13.8027 4.12802C 12.6686 6.31796 11.9343 5.63046 11.9343 4.61409L 11.9343 1.10963C 11.9343 0.816782 11.8179 0.535932 11.6109 0.32886C 11.4038 0.121788 11.1229 0.00545572 10.8301 0.00545572L 8.3561 0.00545572C 8.01918 -0.0195946 7.68145 0.0419031 7.37499 0.184108C 7.06852 0.326313 6.8035 0.544503 6.6051 0.817956C 6.6051 0.817956 7.86136 0.614836 7.86136 2.30754C 7.86136 2.72728 7.88298 3.93476 7.90268 4.94754C 7.90639 5.09678 7.86422 5.24357 7.78186 5.36809C 7.69951 5.4926 7.58092 5.58885 7.44213 5.64384C 7.30333 5.69882 7.15101 5.70989 7.00572 5.67556C 6.86043 5.64123 6.72918 5.56314 6.62968 5.45185C 5.61703 4.04343 4.77822 2.51785 4.13148 0.908256C 4.07593 0.787849 3.98702 0.6859 3.87528 0.614505C 3.76354 0.543109 3.63367 0.505263 3.50107 0.505456C 2.78747 0.505456 1.35949 0.505456 0.511457 0.505456C 0.429223 0.504896 0.348083 0.524309 0.275006 0.562026C 0.20193 0.599744 0.139103 0.654638 0.0919226 0.721993C 0.0447421 0.789348 0.0146189 0.867151 0.00414071 0.948717C -0.00633743 1.03028 0.00314281 1.11317 0.031767 1.19027C 0.939557 3.68033 4.85003 11.5055 9.31344 11.5055L 11.1921 11.5055C 11.3889 11.5055 11.5777 11.4273 11.7169 11.2881C 11.8561 11.1489 11.9343 10.9601 11.9343 10.7633L 11.9343 9.62888C 11.9343 9.48657 11.9759 9.34737 12.054 9.22844C 12.1322 9.1095 12.2434 9.01602 12.374 8.95952C 12.5046 8.90302 12.6489 8.88597 12.7891 8.91047C 12.9293 8.93496 13.0592 8.99993 13.1629 9.09738L 15.4116 11.2101C 15.6135 11.3998 15.8802 11.5054 16.1573 11.5055L 19.1101 11.5055C 20.5342 11.5055 20.5342 10.5172 19.7578 9.75252C 19.2113 9.21435 17.2394 7.13589 17.2394 7.13589C 17.0706 6.96095 16.9699 6.73138 16.9555 6.48867C 16.9411 6.24595 17.014 6.0061 17.1611 5.81246C 17.7984 4.9737 18.8409 3.60071 19.2831 3.01253C 19.8874 2.20859 20.9811 0.505456 19.4816 0.505456Z" transform="translate(2 6)" fill="#3F51B5"/>
</g>
</g>
</g>
</svg>

