<svg width="157" height="36" viewBox="0 0 157 36" version="1.1" xmlns="http://www.w3.org/2000/svg" xmlns:xlink="http://www.w3.org/1999/xlink">
<title>Logo</title>
<desc>Created using Figma</desc>
<g id="Canvas" transform="translate(-10741 10149)">
<g id="Logo">
<g id="Symbol">
<g id="Group">
<g id="Vector">
<use xlink:href="#path0_fill" transform="translate(10741 -10149)" fill="#FFFFFF"/>
</g>
<g id="Vector">
<use xlink:href="#path1_fill" transform="translate(10744.4 -10118.2)" fill="#FFFFFF"/>
</g>
<g id="Vector">
<use xlink:href="#path2_fill" transform="translate(10750.8 -10118.2)" fill="#FFFFFF"/>
</g>
<g id="Vector">
<use xlink:href="#path3_fill" transform="translate(10748.4 -10117.3)" fill="#FFFFFF"/>
</g>
</g>
</g>
<g id="Text">
<g id="Vector">
<use xlink:href="#path4_fill" transform="translate(10773.8 -10139)" fill="#FFFFFF"/>
</g>
<g id="Vector">
<use xlink:href="#path5_fill" transform="translate(10788.9 -10139)" fill="#FFFFFF"/>
</g>
<g id="Vector">
<use xlink:href="#path6_fill" transform="translate(10805.8 -10139)" fill="#FFFFFF"/>
</g>
<g id="Vector">
<use xlink:href="#path7_fill" transform="translate(10823.6 -10139)" fill="#FFFFFF"/>
</g>
<g id="Vector">
<use xlink:href="#path8_fill" transform="translate(10861.4 -10139)" fill="#FFFFFF"/>
</g>
<g id="Vector">
<use xlink:href="#path9_fill" transform="translate(10881.2 -10139)" fill="#FFFFFF"/>
</g>
<g id="Vector">
<use xlink:href="#path10_fill" transform="translate(10841.5 -10139)" fill="#FFFFFF"/>
</g>
<g id="Vector">
<use xlink:href="#path11_fill" transform="translate(10841.6 -10132.1)" fill="#FFFFFF"/>
</g>
<g id="Vector">
<use xlink:href="#path10_fill" transform="translate(10841.5 -10125.3)" fill="#FFFFFF"/>
</g>
</g>
</g>
</g>
<defs>
<path id="path0_fill" d="M 16.4443 10.8261C 16.2464 10.3286 15.8224 9.14241 15.7328 8.81069C 15.6433 8.47897 15.7328 7.57428 15.7328 7.57428L 15.4643 7.76527C 15.4643 7.76527 15.2664 6.55399 14.9507 5.5337C 14.6397 4.51341 13.6361 3.68411 13.1696 3.46799C 13.3675 3.67908 13.5701 4.6089 13.4146 4.6089C 13.2591 4.6089 12.9717 3.79971 12.4581 3.23176C 11.9445 2.66381 10.8137 2.16623 10.4791 1.99535C 10.1446 1.82949 9.48022 1.21128 9.21164 0.854431C 8.76873 2.04058 8.63209 0.402085 8.63209 1.42849e-15C 8.54256 0.0954952 7.89704 0.547841 7.34104 0.713701C 6.78505 0.879561 6.09712 1.07055 5.60709 1.30678C 5.11706 1.543 4.93801 1.92498 4.47153 2.58842C 4.00506 3.25186 4.16055 2.54319 4.16055 2.18634C 4.00506 2.70905 3.33598 3.1614 2.37948 4.25205C 1.42298 5.34271 1.22037 6.77011 1.22037 6.77011C 1.22037 6.77011 1.02247 6.38813 1.08843 5.89055C 0.532437 6.71985 0.730335 7.7904 0.956503 8.38348C 0.155491 9.35853 5.75176e-07 9.90135 5.75176e-07 9.90135L 0.442913 9.90135L 5.75176e-07 10.6854L 0.33454 10.5447C 0.33454 10.5447 0.0895252 11.8716 0.136644 12.8919C 0.17905 13.9121 1.18267 16.189 1.18267 16.189C 0.292133 16.4955 0.650233 16.973 0.805724 17.2796C 0.0706769 18.3954 0.292134 19.1091 0.69264 20.1998C 0.890537 21.7428 1.69155 22.0494 1.69155 22.0494C 1.69155 22.0494 2.45016 24.492 2.77998 25.4671C 3.11453 26.4421 3.89198 27.5328 4.71655 28.5983C 5.54112 29.6638 6.00759 30.3775 8.60853 30.3775C 11.2095 30.3775 12.0105 28.9753 12.835 28.0052C 13.6596 27.0302 14.1025 26.2712 14.6161 24.874C 15.1297 23.4717 15.2616 22.2403 15.2852 21.8131C 15.6197 21.788 15.7752 21.411 15.9072 21.1748C 16.0391 20.9386 16.0862 20.627 16.4208 19.4911C 16.8213 18.3502 16.3783 17.737 16.1522 17.2595C 16.6846 16.4754 16.1946 16.3096 15.8648 16.2141C 15.8412 15.812 16.4208 14.4801 16.7317 13.2688C 17.0474 12.0626 16.6469 11.3288 16.4443 10.8261ZM 4.51865 17.5661L 4.76367 17.732L 4.3396 18.5412L 2.71402 18.9432L 2.35592 20.1043C 2.35592 20.1043 1.77636 19.6067 1.79992 18.4406C 1.82348 17.2796 1.77636 16.5207 2.60093 16.4704C 3.42551 16.4252 4.29248 16.4704 4.29248 16.4704C 5.05109 16.4955 6.73793 16.968 7.0065 17.159C 7.27508 17.35 7.38345 18.511 7.0065 19.1744C 6.62956 19.8379 5.93692 20.8833 4.78252 20.8833C 3.6234 20.8833 2.91192 20.6471 2.71402 20.4561C 2.80354 19.9836 3.04856 19.3654 3.04856 19.3654L 4.47153 19.0588L 5.14061 18.1089L 5.47516 18.2496L 5.54112 17.0886L 4.51865 17.5661ZM 9.88073 27.3468C 9.45666 27.4423 8.12321 27.7037 6.92169 27.3468C 6.43166 27.181 5.89922 26.7286 6.56359 25.829C 7.23267 24.9293 8.41063 24.8338 8.41063 24.8338C 8.96663 24.8338 10.3425 25.3816 10.6111 26.2361C 10.8796 27.0905 10.3048 27.2513 9.88073 27.3468ZM 11.8408 26.231C 10.9503 24.8539 10.1069 23.8336 8.45775 23.7884C 6.81332 23.7431 5.8097 25.0248 5.16417 26.231C 4.23123 25.4017 2.56324 24.1653 2.04965 20.818C 2.04965 20.818 3.13808 21.5317 4.41028 21.4362C 5.68248 21.3407 6.47878 21.3407 6.9264 20.818C 7.88291 19.7776 7.66616 18.1139 8.42005 18.1139C 9.17395 18.1139 9.28703 19.8479 9.64042 20.3204C 9.99852 20.7928 10.4838 21.5015 12.7314 21.4462C 14.291 21.4161 14.8658 20.8934 14.8658 20.8934C 14.8658 20.8934 14.6632 23.9291 11.8408 26.231ZM 14.7292 20.0138C 14.0601 20.8682 12.3921 21.1044 11.1011 20.5817C 11.299 19.8932 11.5016 19.4207 11.5016 19.4207L 12.9481 19.0186L 13.5937 18.119L 13.9282 18.2848L 13.9942 17.1238L 12.9481 17.5762L 13.2167 17.8626L 12.7267 18.6718L 11.2566 18.9282L 10.7901 20.3505C 10.7901 20.3505 9.72052 19.4006 9.70167 18.5009C 9.67811 17.6013 9.74408 17.1489 10.3001 16.9831C 10.8561 16.8172 11.9916 16.581 11.9916 16.581C 12.7691 16.4855 14.6161 16.3448 14.8611 16.7469C 15.1109 17.1389 15.3983 19.1594 14.7292 20.0138ZM 8.42477 16.7368C 5.27255 15.3848 3.13808 15.6461 1.69155 16.003C 1.69155 16.003 1.55962 13.2286 2.00253 11.8967C 2.44544 10.5698 2.95903 9.4289 3.18049 9.21278C 3.46791 9.30827 5.96519 9.97171 8.42005 9.97171C 10.8749 9.97171 13.1225 9.25801 13.4806 9.09215C 13.702 9.5646 14.4371 10.801 14.6821 11.962C 14.9271 13.1231 15.1721 14.4047 15.1486 15.998C 14.2203 15.7668 11.7513 15.4099 8.42477 16.7368Z"/>
<path id="path1_fill" d="M 1.68264 2.99051C 1.68264 2.99051 3.64276 2.42256 3.64276 2.23157C 3.64276 2.04058 2.28575 1.70886 1.64023 1.56813C 2.13026 1.30678 3.64276 1.56813 3.64276 1.56813C 3.64276 1.56813 3.64276 1.37714 3.64276 1.18615C 2.72867 0.190991 0.594202 -1.22707e-06 0.594202 -1.22707e-06C -0.38586 1.56813 0.0146459 3.67908 0.594202 4.57875C 1.66379 4.50838 2.4648 4.0108 3.03965 3.74945C 3.6192 3.48809 3.68517 3.2016 3.63805 2.99051C 3.57208 3.03574 1.68264 2.99051 1.68264 2.99051Z"/>
<path id="path2_fill" d="M 0.0104196 1.18615C 0.0104196 1.37714 0.0104196 1.56813 0.0104196 1.56813C 0.0104196 1.56813 1.52292 1.30678 2.01295 1.56813C 1.36743 1.70886 0.0104196 2.04058 0.0104196 2.23157C 0.0104196 2.42256 1.97054 2.99051 1.97054 2.99051C 1.97054 2.99051 0.0810971 3.03574 0.0104196 2.99051C -0.031987 3.2016 0.0339793 3.48809 0.608823 3.74945C 1.18838 4.0108 1.98939 4.50838 3.05427 4.57875C 3.63382 3.67908 4.03433 1.56311 3.05427 -1.22707e-06C 3.05898 -1.22707e-06 0.924516 0.185965 0.0104196 1.18615Z"/>
<path id="path3_fill" d="M 0.966973 0C 0.0999951 0 0.0104708 0.638311 0.0104708 0.638311C 0.0104708 0.638311 -0.0130884 2.01545 0.0104708 2.32204C 0.0340299 2.62863 0.387418 2.72413 1.00938 2.72413C 1.63134 2.72413 2.00829 2.32204 2.00829 2.32204C 2.00829 2.32204 2.00829 0.804171 2.00829 0.638311C 2.013 0.477477 1.83866 0 0.966973 0Z"/>
<path id="path4_fill" d="M 11.5081 13.4614L 11.5081 18L 0 18L 0 0L 5.06149 0L 5.06149 13.4614L 11.5081 13.4614Z"/>
<path id="path5_fill" d="M 14.4337 6.50571C 14.4337 10.2857 11.5728 13.0371 7.71521 13.0371L 5.00971 13.0371L 5.00971 18L -3.9505e-07 18L -3.9505e-07 0L 7.71521 0C 11.5728 0 14.4337 2.72571 14.4337 6.50571ZM 9.2945 6.51857C 9.2945 5.23286 8.42718 4.33286 7.11974 4.33286L 5.00971 4.33286L 5.00971 8.70429L 7.11974 8.70429C 8.42718 8.70429 9.2945 7.79143 9.2945 6.51857Z"/>
<path id="path6_fill" d="M 14.8479 4.46143L 9.9288 4.46143L 9.9288 18L 4.91909 18L 4.91909 4.46143L 0 4.46143L 0 0L 14.8608 0L 14.8608 4.46143L 14.8479 4.46143Z"/>
<path id="path7_fill" d="M 6.80906 12.4971L 4.99676 12.4971L 4.99676 18L -1.5802e-06 18L -1.5802e-06 0L 7.8576 0C 11.767 0 14.6019 2.61 14.6019 6.36429C 14.6019 8.57572 13.5146 10.3886 11.7282 11.4429L 15.3269 17.9871L 9.76052 17.9871L 6.80906 12.4971ZM 5.00971 8.31857L 7.28803 8.31857C 8.68608 8.31857 9.48867 7.48286 9.48867 6.36429C 9.48867 5.24571 8.68608 4.41 7.28803 4.41L 5.00971 4.41L 5.00971 8.31857Z"/>
<path id="path8_fill" d="M 16.1683 0L 16.1683 18L 12.0388 18L 4.84143 8.22857L 4.84143 18L 0 18L 0 0L 4.3754 0L 11.3398 9.43714L 11.3398 0L 16.1683 0Z"/>
<path id="path9_fill" d="M 16.6861 8.98714C 16.6861 14.2457 12.8026 18 7.32686 18L 0 18L 0 0L 7.33981 0C 12.8155 0 16.6861 3.72857 16.6861 8.98714ZM 11.5728 8.98714C 11.5728 6.31286 9.78641 4.53857 7.1068 4.53857L 5.02265 4.53857L 5.02265 13.4614L 7.1068 13.4614C 9.78641 13.4614 11.5728 11.6357 11.5728 8.98714Z"/>
<path id="path10_fill" d="M 16.1165 0L 0 0L 0 4.28143L 16.1165 4.28143L 16.1165 0Z"/>
<path id="path11_fill" d="M 16.1165 0L 0 0L 0 4.28143L 16.1165 4.28143L 16.1165 0Z"/>
</defs>
</svg>
