<svg width="64" height="64" viewBox="0 0 64 64" version="1.1" xmlns="http://www.w3.org/2000/svg" xmlns:xlink="http://www.w3.org/1999/xlink">
<g id="Canvas" fill="none">
<g id="Vector">
<path d="M 32 0C 14.32 0 0 14.32 0 32C 0 49.68 14.32 64 32 64C 49.68 64 64 49.68 64 32C 64 14.32 49.68 0 32 0ZM 32 9.6C 37.296 9.6 41.6 13.904 41.6 19.2C 41.6 24.512 37.296 28.8 32 28.8C 26.704 28.8 22.4 24.512 22.4 19.2C 22.4 13.904 26.704 9.6 32 9.6ZM 32 55.04C 23.984 55.04 16.944 50.944 12.8 44.736C 12.88 38.384 25.616 34.88 32 34.88C 38.384 34.88 51.104 38.384 51.2 44.736C 47.056 50.944 40.016 55.04 32 55.04Z" fill="white"/>
</g>
</g>
</svg>

