<?xml version="1.0" encoding="UTF-8" standalone="no"?>
<!-- Created with Inkscape (http://www.inkscape.org/) -->

<svg
   xmlns:dc="http://purl.org/dc/elements/1.1/"
   xmlns:cc="http://creativecommons.org/ns#"
   xmlns:rdf="http://www.w3.org/1999/02/22-rdf-syntax-ns#"
   xmlns:svg="http://www.w3.org/2000/svg"
   xmlns="http://www.w3.org/2000/svg"
   xmlns:sodipodi="http://sodipodi.sourceforge.net/DTD/sodipodi-0.dtd"
   xmlns:inkscape="http://www.inkscape.org/namespaces/inkscape"
   version="1.1"
   id="svg2"
   xml:space="preserve"
   width="67.722664"
   height="54.093735"
   viewBox="0 0 67.722664 54.093735"
   sodipodi:docname="arrow.svg"
   inkscape:version="0.92.1 r15371"><metadata
     id="metadata8"><rdf:RDF><cc:Work
         rdf:about=""><dc:format>image/svg+xml</dc:format><dc:type
           rdf:resource="http://purl.org/dc/dcmitype/StillImage" /><dc:title></dc:title></cc:Work></rdf:RDF></metadata><defs
     id="defs6"><clipPath
       clipPathUnits="userSpaceOnUse"
       id="clipPath18"><path
         d="M 0,40.57 H 50.792 V 0 H 0 Z"
         id="path16"
         inkscape:connector-curvature="0" /></clipPath></defs><sodipodi:namedview
     pagecolor="#ffffff"
     bordercolor="#666666"
     borderopacity="1"
     objecttolerance="10"
     gridtolerance="10"
     guidetolerance="10"
     inkscape:pageopacity="0"
     inkscape:pageshadow="2"
     inkscape:window-width="1920"
     inkscape:window-height="1027"
     id="namedview4"
     showgrid="false"
     inkscape:zoom="4.3627973"
     inkscape:cx="33.861332"
     inkscape:cy="27.046867"
     inkscape:window-x="-8"
     inkscape:window-y="-8"
     inkscape:window-maximized="1"
     inkscape:current-layer="g10" /><g
     id="g10"
     inkscape:groupmode="layer"
     inkscape:label="Vector Smart Object8"
     transform="matrix(1.3333333,0,0,-1.3333333,0,54.093733)"><g
       id="g12"><g
         id="g14"
         clip-path="url(#clipPath18)"><g
           id="g20"
           transform="translate(50.0088,19.5059)"><path
             d="m 0,0 h -49.236 c -0.421,0 -0.773,0.35 -0.773,0.783 0,0.426 0.352,0.776 0.773,0.776 L 0,1.559 c 0.434,0 0.783,-0.35 0.783,-0.776 C 0.783,0.35 0.434,0 0,0"
             style="fill:#ffffff;fill-opacity:1;fill-rule:nonzero;stroke:none"
             id="path22"
             inkscape:connector-curvature="0" /></g><g
           id="g24"
           transform="translate(30.5029)"><path
             d="m 0,0 c -0.205,0 -0.403,0.076 -0.555,0.229 -0.304,0.302 -0.304,0.796 0,1.099 L 18.404,20.289 -0.555,39.24 c -0.304,0.305 -0.304,0.799 0,1.102 0.303,0.304 0.797,0.304 1.102,0 L 20.061,20.836 c 0.144,-0.145 0.22,-0.342 0.22,-0.547 0,-0.205 -0.076,-0.402 -0.22,-0.555 L 0.547,0.229 C 0.395,0.076 0.197,0 0,0"
             style="fill:#ffffff;fill-opacity:1;fill-rule:nonzero;stroke:none"
             id="path26"
             inkscape:connector-curvature="0" /></g></g></g></g></svg>