<?xml version="1.0" encoding="utf-8"?><svg xmlns="http://www.w3.org/2000/svg" xmlns:xlink="http://www.w3.org/1999/xlink"><symbol viewBox="0 0 67.722664 54.093735" id="arrow" xmlns="http://www.w3.org/2000/svg"><defs><clipPath id="aa"><path d="M0 40.57h50.792V0H0z"/></clipPath></defs><g clip-path="url(#aa)" transform="matrix(1.33333 0 0 -1.33333 0 54.094)" fill="#fff"><path d="M50.009 19.506H.773a.78.78 0 0 0 0 1.559h49.236a.78.78 0 1 0 0-1.56"/><path d="M30.503 0a.776.776 0 0 0-.555 1.328l18.959 18.961-18.96 18.951a.78.78 0 0 0 1.103 1.102l19.514-19.506a.772.772 0 0 0 .22-.547.805.805 0 0 0-.22-.555L31.05.229A.769.769 0 0 0 30.503 0"/></g></symbol><symbol viewBox="0 0 24 24" id="fb" xmlns="http://www.w3.org/2000/svg"><path d="M16.75 9H13.5V7a1 1 0 0 1 1-1h2V3H14a4 4 0 0 0-4 4v2H8v3h2v9h3.5v-9H16l.75-3z" fill="#3F51B5"/></symbol><symbol viewBox="0 0 24 24" id="gplus" xmlns="http://www.w3.org/2000/svg"><path d="M21.175 10.082V8.221h-1.824v1.861h-1.825v1.862h1.825v1.861h1.824v-1.861H23v-1.862h-1.825zm-12.771 0v2.792h4.329a4.625 4.625 0 0 1-1.718 2.374 4.474 4.474 0 0 1-2.774.833 4.486 4.486 0 0 1-2.704-1.045 4.644 4.644 0 0 1-1.536-2.5 4.717 4.717 0 0 1 .255-2.939 4.598 4.598 0 0 1 1.943-2.185 4.462 4.462 0 0 1 2.843-.543c.98.14 1.889.602 2.587 1.318l1.935-1.974a7.289 7.289 0 0 0-4.648-2.19 7.246 7.246 0 0 0-4.922 1.436 7.513 7.513 0 0 0-2.809 4.367 7.635 7.635 0 0 0 .667 5.18 7.403 7.403 0 0 0 3.82 3.478 7.215 7.215 0 0 0 5.119.09 7.389 7.389 0 0 0 3.935-3.34 7.631 7.631 0 0 0 .843-5.152H8.404z" fill="#3F51B5"/></symbol><symbol viewBox="0 0 24 24" id="ok" xmlns="http://www.w3.org/2000/svg"><g fill="#3F51B5"><path d="M12 12a5 5 0 1 0 0-10 5 5 0 0 0 0 10zm0-7a2 2 0 1 1 0 4 2 2 0 0 1 0-4z"/><path d="M13.895 16.072a10.11 10.11 0 0 0 3.392-1.307 1.503 1.503 0 0 0 .674-.932 1.483 1.483 0 0 0-.595-1.556 1.514 1.514 0 0 0-1.677-.047 7.28 7.28 0 0 1-7.413.068 1.52 1.52 0 0 0-2.06.518 1.484 1.484 0 0 0 .508 2.046c.999.585 2.092.994 3.231 1.21l-3.404 3.375a1.494 1.494 0 0 0-.443 1.057 1.483 1.483 0 0 0 .442 1.058A1.509 1.509 0 0 0 7.617 22a1.52 1.52 0 0 0 1.067-.44l3.241-3.213 3.242 3.213a1.508 1.508 0 0 0 1.066.44 1.52 1.52 0 0 0 1.068-.438 1.494 1.494 0 0 0 .442-1.058 1.484 1.484 0 0 0-.443-1.057l-3.405-3.375z"/></g></symbol><symbol viewBox="0 0 24 24" id="tw" xmlns="http://www.w3.org/2000/svg"><g fill="#3F51B5"><path d="M15.785 12a4 4 0 1 0 0-8 4 4 0 0 0 0 8z"/><path d="M12.368 8.833c-.208 0-.583.432-.583.667a8.5 8.5 0 0 1-8.5 8.5c-.43-.004-.86-.04-1.285-.108a11.417 11.417 0 0 0 17.785-9.476c0-.735-4.683.417-7.417.417z"/><path d="M12.368 8.834a11.385 11.385 0 0 1-8.694-4.028 3.938 3.938 0 0 0-.54 1.965 3.98 3.98 0 0 0 3.98 3.98c2.125 0 5.898.022 6.147-1.962a11.48 11.48 0 0 1-.893.045z"/><path d="M5.03 10.041a3.934 3.934 0 0 1-1.89-.497c0 .02-.005.04-.005.06a3.98 3.98 0 0 0 3.979 3.98c2.198 0 5.275-1.595 5.275-3.793 0-1.51-5.181.25-7.358.25z"/><path d="M7.512 12.996a3.91 3.91 0 0 1-3.03.523 3.966 3.966 0 0 0 3.799 2.856 5.258 5.258 0 0 0 4.67-4.667c0-1.893-4.338.58-5.44 1.288zm9.883-7.617c-1.322 0-1.635 1.66.075 1.66a3.966 3.966 0 0 0 3.754-2.712 7.499 7.499 0 0 1-3.829 1.052z"/><path d="M18.614 6.535a7.522 7.522 0 0 1-2.937-.593c-2.708-1.146-4.355 3.343-.188 3.343a7.534 7.534 0 0 0 6.352-3.482 7.503 7.503 0 0 1-3.227.732z"/></g></symbol><symbol viewBox="0 0 24 24" id="vk" xmlns="http://www.w3.org/2000/svg"><path d="M21.482 6.505h-3.29a.742.742 0 0 0-.655.392s-1.313 2.417-1.734 3.231c-1.134 2.19-1.869 1.502-1.869.486V7.11a1.104 1.104 0 0 0-1.104-1.105h-2.474a1.982 1.982 0 0 0-1.75.813s1.255-.203 1.255 1.49c0 .42.022 1.627.042 2.64a.73.73 0 0 1-1.273.504 21.54 21.54 0 0 1-2.5-4.544.693.693 0 0 0-.63-.403H2.51a.508.508 0 0 0-.48.685c.909 2.49 4.819 10.316 9.282 10.316h1.88a.742.742 0 0 0 .741-.743V15.63a.73.73 0 0 1 1.229-.532l2.249 2.113c.202.19.468.295.745.296h2.953c1.424 0 1.424-.989.648-1.753-.547-.539-2.519-2.617-2.519-2.617a1.019 1.019 0 0 1-.078-1.324c.637-.838 1.68-2.211 2.122-2.8.604-.803 1.698-2.507.199-2.507z" fill="#3F51B5"/></symbol></svg>